<svg xmlns="http://www.w3.org/2000/svg" xml:space="preserve" width="2.87661in" height="2.87662in" version="1.1" style="shape-rendering:geometricPrecision; text-rendering:geometricPrecision; image-rendering:optimizeQuality; fill-rule:evenodd; clip-rule:evenodd" viewBox="0 0 415.37 415.37" xmlns:xlink="http://www.w3.org/1999/xlink" xmlns:xodm="http://www.corel.com/coreldraw/odm/2003">
 <defs>
  <style type="text/css">
   
    .fil1 {fill:#FEFEFE}
    .fil0 {fill:#282829}
    .fil2 {fill:#FEFEFE;fill-rule:nonzero}
   
  </style>
 </defs>
 <g id="Layer_x0020_1">
  <metadata id="CorelCorpID_0Corel-Layer"></metadata>
  <g id="_2946694115104">
   
   <g>
    <path class="fil1" d="M175.44 159.5c6.22,-1.79 6.3,-10.81 -1.02,-14.38 -4.31,-0.61 -13.63,10.22 -2.46,15.01 -0.94,18.74 -8.77,107.42 -18.72,162.21 1.44,0.74 2.91,1.45 4.38,2.14 10.28,-51.89 15.57,-137.49 17.82,-164.98zm120.42 -62.65c7.79,8.48 9.16,22.45 -0.09,24.16 7.8,39.39 7.41,116.85 1.01,174.41 -1.79,2.02 -3.65,3.98 -5.57,5.87 6.41,-59.3 7.81,-142.56 0.64,-181.15 -12.71,-3.29 -8.75,-31.79 4.01,-23.28zm-65.93 92.3c-0.86,-3.33 -2.79,-5.55 -6.31,-3.49 -2.05,1.61 -11.62,0.01 -7.04,11.03 -6.53,7.5 -12.8,21.31 -18.49,38.37 -2.59,-53.7 -1.87,-108.06 2.05,-130.13 6.2,-0.32 10.12,-2.82 8.5,-15.46 -1.15,-3.6 -5.58,-4.43 -8.19,-2.26 -3.72,5.28 -10.15,7.59 -3.79,16.41 -2.32,10.51 -5.24,79.42 -2.49,144.04 -7.54,25.78 -13.74,56.5 -17.67,83.7 1.31,0.35 2.62,0.69 3.94,1 3.6,-23.15 8.55,-48.88 14.35,-71.91 1.58,28.57 4.38,55.44 8.96,74.97 1.3,0.04 2.61,0.07 3.93,0.07 0.26,0 0.52,-0.01 0.78,-0.01 -4.62,-23.15 -7.87,-55.77 -9.8,-89.54 6.24,-21.98 13.23,-39.99 20.44,-48.47 0.62,0.73 9.56,0.81 10.82,-8.32zm51.11 -35.36c-7.98,-4.03 2.98,-15.51 8.12,-16.44 2.98,3.01 7.89,16.15 -4.96,18.02 -4.21,17.51 -9.02,101.21 -7.15,157.84 -1.37,0.98 -2.76,1.93 -4.17,2.86 -3.03,-54.02 2.71,-135.96 8.16,-162.28zm-17.06 23.61c4.98,2.21 7.06,10.22 0.11,12.64 0.44,5 -1.74,86.44 -9.87,136.01 -1.85,0.79 -3.73,1.53 -5.63,2.22 7.32,-49.35 14.37,-133.08 12.84,-138.71 -5.88,-1.2 -5.28,-10.34 2.55,-12.17zm-97.74 -58.51c-1.64,-4.97 -5.54,-6.28 -10.86,-2.78 -7.31,6.93 -10.24,11.07 -5.26,17.61 -6.5,9.28 -12.37,21.25 -17.59,34.88 -3.31,-35.37 -7.52,-63.26 -11.7,-71.92 8.62,-5.48 5.46,-14.88 -3.06,-22.62 -2.92,-2.53 -9.99,-3.14 -11.81,3.49 -1.28,13.41 3.58,21.89 11.05,20.12 5.59,12.09 9.61,42.79 12.22,80.01 -10.58,30.67 -18.16,67.97 -22.59,101.77 1.69,2.71 3.49,5.34 5.39,7.9 3.47,-32.27 9.03,-68.31 17.9,-99 2.38,38.91 3.32,83.37 2.99,120.74 1.93,1.56 3.9,3.06 5.93,4.5 0.51,-41.75 -1.84,-93.44 -5.53,-136.2 5.65,-17.05 12.47,-31.9 20.71,-42.74 9.55,-1.71 13.62,-5.89 12.21,-15.76zm69.44 -10.22c-2.66,-2.1 -5.37,-3.16 -6.87,-0.28 -4.83,9.28 -3.02,20.7 4.48,18.23 6.99,34.3 2.46,143.13 -8.67,207.66 1.77,-0.25 3.54,-0.55 5.29,-0.87 12.22,-69.71 10.41,-193.7 6.82,-208.19 2.04,-0.72 9.7,-8.37 -1.06,-16.55z" data-index="1" style="opacity: 1;"></path>
    <path class="fil1" d="M318.66 173.03c5.39,13.79 8.14,28.46 8.14,43.34 0,65.78 -53.33,119.11 -119.11,119.11 -65.78,0 -119.11,-53.33 -119.11,-119.11 0,-17.84 3.94,-35.36 11.66,-51.44l0.22 -0.46 0.51 0.01c0.09,0 0.17,0 0.26,0 4.99,0 9.04,-4.05 9.04,-9.04 0,-4.99 -4.05,-9.04 -9.04,-9.04 -4.99,0 -9.04,4.05 -9.04,9.04 0,1.73 0.49,3.41 1.42,4.87l0.24 0.37 -0.19 0.4c-8.39,17.26 -12.68,36.1 -12.68,55.29 0,69.98 56.73,126.71 126.71,126.71 69.98,0 126.71,-56.73 126.71,-126.71 0,-16.07 -3.01,-31.9 -8.91,-46.76 -1.98,1.58 -4.3,2.77 -6.83,3.41z" data-index="2" style="opacity: 1;"></path>
    <path class="fil1" d="M314.15 146.42c4.99,0 9.04,4.05 9.04,9.04 0,4.99 -4.05,9.04 -9.04,9.04 -4.99,0 -9.04,-4.05 -9.04,-9.04 0,-4.99 4.05,-9.04 9.04,-9.04z" data-index="3"></path>
    <path class="fil2" d="M72.84 204.04l0 -25.59c0,-1.16 0.24,-1.95 0.71,-2.4 0.48,-0.44 1.33,-0.66 2.55,-0.66l4.59 0c-0.38,-3.17 -3.69,-6.82 -8.36,-7.24 -3.19,0 -5.44,0.8 -6.73,2.4 -1.29,1.6 -1.94,3.86 -1.94,6.78l0 24.26c0,12.56 -10.59,12.37 -10.19,18.35l1.63 0c2.99,0 5.16,0.88 6.52,2.65 1.36,1.77 2.04,4.55 2.04,8.36l0 24.46c0,2.92 0.65,5.18 1.94,6.78 1.29,1.6 3.53,2.4 6.73,2.4 4.67,-0.42 7.98,-4.07 8.36,-7.24l-4.59 0c-1.22,0 -2.07,-0.22 -2.55,-0.66 -0.48,-0.44 -0.71,-1.24 -0.71,-2.4l0 -25.89c0,-7.41 -2.47,-10.33 -7.63,-10.94 2.76,-1.8 7.63,-5.95 7.63,-13.43z" data-index="4"></path>
    <path class="fil2" d="M342.53 228.71l0 25.58c0,1.16 -0.24,1.95 -0.71,2.4 -0.48,0.44 -1.33,0.66 -2.55,0.66l-4.59 0c0.38,3.17 3.69,6.82 8.36,7.24 3.19,0 5.44,-0.8 6.73,-2.4 1.29,-1.6 1.94,-3.86 1.94,-6.78l0 -24.26c0,-12.56 10.59,-12.37 10.19,-18.35l-1.63 0c-2.99,0 -5.16,-0.88 -6.52,-2.65 -1.36,-1.77 -2.04,-4.55 -2.04,-8.36l0 -24.46c0,-2.92 -0.65,-5.18 -1.94,-6.78 -1.29,-1.6 -3.53,-2.4 -6.73,-2.4 -4.67,0.42 -7.98,4.07 -8.36,7.24l4.59 0c1.22,0 2.07,0.22 2.55,0.66 0.48,0.44 0.71,1.24 0.71,2.4l0 25.89c0,7.41 2.47,10.33 7.63,10.94 -2.76,1.8 -7.63,5.95 -7.63,13.43z" data-index="5"></path>
   </g>
  </g>
 </g>
</svg>